<svg 
  width="32" 
  height="32" 
  viewBox="0 0 100 100" 
  fill="none" 
  xmlns="http://www.w3.org/2000/svg"
>
  <circle cx="50" cy="50" r="18" fill="white" />
  <rect x="45" y="5" width="10" height="30" rx="2" fill="#007AFF" transform="rotate(0 50 50)" />
  <rect x="45" y="5" width="10" height="30" rx="2" fill="#007AFF" transform="rotate(30 50 50)" />
  <rect x="45" y="5" width="10" height="30" rx="2" fill="#007AFF" transform="rotate(60 50 50)" />
  <rect x="45" y="5" width="10" height="30" rx="2" fill="#007AFF" transform="rotate(90 50 50)" />
  <rect x="45" y="5" width="10" height="30" rx="2" fill="#007AFF" transform="rotate(120 50 50)" />
  <rect x="45" y="5" width="10" height="30" rx="2" fill="#007AFF" transform="rotate(150 50 50)" />
  <rect x="45" y="5" width="10" height="30" rx="2" fill="#007AFF" transform="rotate(180 50 50)" />
  <rect x="45" y="5" width="10" height="30" rx="2" fill="#007AFF" transform="rotate(210 50 50)" />
  <rect x="45" y="5" width="10" height="30" rx="2" fill="#007AFF" transform="rotate(240 50 50)" />
  <rect x="45" y="5" width="10" height="30" rx="2" fill="#007AFF" transform="rotate(270 50 50)" />
  <rect x="45" y="5" width="10" height="30" rx="2" fill="#007AFF" transform="rotate(300 50 50)" />
  <rect x="45" y="5" width="10" height="30" rx="2" fill="#007AFF" transform="rotate(330 50 50)" />
</svg>
